<?xml version="1.0" standalone="no"?>
<!DOCTYPE svg PUBLIC "-//W3C//DTD SVG 20010904//EN"
 "http://www.w3.org/TR/2001/REC-SVG-20010904/DTD/svg10.dtd">
<svg version="1.0" xmlns="http://www.w3.org/2000/svg"
 width="100.000000pt" height="100.000000pt" viewBox="0 0 100.000000 100.000000"
 preserveAspectRatio="xMidYMid meet">

<g transform="translate(0.000000,100.000000) scale(0.100000,-0.100000)"
fill="#000000" stroke="none">
<path d="M489 923 c-17 -15 -45 -54 -61 -88 -24 -50 -28 -71 -27 -126 2 -57
-1 -71 -24 -100 -36 -47 -47 -82 -47 -145 0 -70 19 -114 63 -150 l35 -28 -29
-27 c-41 -38 -41 -99 0 -139 48 -49 101 -52 156 -9 33 27 55 76 55 125 0 31 7
43 40 72 45 38 80 102 79 141 -1 39 -50 111 -89 132 -20 11 -55 19 -82 19 -27
0 -48 2 -48 5 0 3 16 28 35 56 19 28 40 70 46 92 16 60 5 144 -22 173 -29 31
-40 30 -80 -3z m71 -22 c15 -29 12 -133 -5 -174 -8 -19 -39 -64 -68 -99 -30
-35 -59 -73 -66 -85 -29 -56 -6 -134 49 -167 37 -21 57 -20 63 4 4 17 0 20
-24 20 -92 0 -92 143 0 171 93 28 191 -38 191 -128 0 -43 -41 -106 -83 -128
-35 -19 -37 -22 -37 -73 0 -88 -36 -133 -108 -132 -48 1 -89 51 -78 96 16 62
105 66 92 3 -3 -16 -1 -29 4 -29 17 0 50 53 50 81 0 25 -4 29 -27 29 -48 0
-111 39 -138 84 -43 74 -33 148 33 236 23 30 26 43 24 95 -6 126 88 270 128
196z m-70 -310 c0 -12 -20 -25 -27 -18 -7 7 6 27 18 27 5 0 9 -4 9 -9z m30
-341 c0 -11 -2 -20 -5 -20 -2 0 -9 9 -15 20 -9 16 -8 20 5 20 8 0 15 -9 15
-20z"/>
<path d="M485 814 c-20 -30 -26 -115 -9 -121 7 -2 22 16 34 41 34 72 14 139
-25 80z m16 -51 c-10 -17 -10 -16 -11 3 0 23 13 41 18 25 2 -6 -1 -18 -7 -28z"/>
<path d="M520 520 c-21 -21 -26 -40 -11 -40 6 0 13 5 16 10 11 18 35 10 47
-15 9 -19 8 -29 -5 -49 -12 -17 -14 -32 -8 -48 l8 -22 32 31 c40 40 43 92 6
128 -29 30 -58 32 -85 5z"/>
</g>
</svg>
